# xmcd
#
# Track frame offsets:
#	150
#	19508
#	37225
#	54253
#	72747
#	85682
#	102766
#	122835
#	141785
#	156004
#	175641
#	191654
#	207046
#	225603
#	241406
#
# Disc length: 3399 seconds
#
# Revision: 0
# Processed by: cddbd v1.5.2PL0 Copyright (c) Steve Scherf et al.
# Submitted via: audiograbber 1.83.01
#
DISCID=c40d450f
DTITLE=Chartbuster - CB60383
DYEAR=1900
DGENRE=Kareoke
TTITLE0=Kenny Chesney - Got A Little Crazy
TTITLE1=Tim McGraw - Let It Go
TTITLE2=Carrie Underwood - More Boys I Meet
TTITLE3=Trace Adkins - Muddy Water
TTITLE4=Marcal - I Love This Song
TTITLE5=Blake Shelton - She Wouldn't Be Gone
TTITLE6=Dolly Parton - Shinola
TTITLE7=Montgomery Gentry - Roll With Me
TTITLE8=Darryl Worley - Tequila On Ice
TTITLE9=Whitney Duncan - When I Said I Would
TTITLE10=Rehab and Hank Williams Jr. - Bartenders Song (Sittin' In A Bar)
TTITLE11=Trent Willmon - Cold Bear and A Fishing Pole
TTITLE12=LeAnn Rhimes - Family
TTITLE13=Randy Travis - Dig Two Graves
TTITLE14=Kenny Cheseney - Everybody Goes To Heaven
EXTD=
EXTT0=
EXTT1=
EXTT2=
EXTT3=
EXTT4=
EXTT5=
EXTT6=
EXTT7=
EXTT8=
EXTT9=
EXTT10=
EXTT11=
EXTT12=
EXTT13=
EXTT14=
PLAYORDER=
